<svg preserveAspectRatio="none" overflow="visible" style="display: block;" width="20" height="20" viewBox="0 0 20 20" fill="none" xmlns="http://www.w3.org/2000/svg">
<g id="download-solid 1">
<path id="Vector" d="M10 1C10.3315 1 10.6495 1.1317 10.8839 1.36612C11.1183 1.60054 11.25 1.91848 11.25 2.25V10.48L13.85 7.88C13.9662 7.76378 14.1042 7.67159 14.256 7.60869C14.4079 7.54579 14.5706 7.51342 14.735 7.51342C14.8994 7.51342 15.0621 7.54579 15.214 7.60869C15.3658 7.67159 15.5038 7.76378 15.62 7.88C15.7362 7.99622 15.8284 8.13419 15.8913 8.28604C15.9542 8.43789 15.9866 8.60064 15.9866 8.765C15.9866 8.92936 15.9542 9.09211 15.8913 9.24396C15.8284 9.39581 15.7362 9.53378 15.62 9.65L10.88 14.39C10.6459 14.6221 10.3296 14.7522 10 14.7522C9.67038 14.7522 9.3541 14.6221 9.12 14.39L4.38 9.65C4.26378 9.53378 4.17159 9.39581 4.10869 9.24396C4.04579 9.09211 4.01342 8.92936 4.01342 8.765C4.01342 8.60064 4.04579 8.43789 4.10869 8.28604C4.17159 8.13419 4.26378 7.99622 4.38 7.88C4.49622 7.76378 4.63419 7.67159 4.78604 7.60869C4.93789 7.54579 5.10064 7.51342 5.265 7.51342C5.42936 7.51342 5.59211 7.54579 5.74396 7.60869C5.89581 7.67159 6.03378 7.76378 6.15 7.88L8.75 10.48V2.25C8.75 1.91848 8.8817 1.60054 9.11612 1.36612C9.35054 1.1317 9.66848 1 10 1ZM2.25 15.5C2.94 15.5 3.5 16.06 3.5 16.75V17H16.5V16.75C16.5 16.4185 16.6317 16.1005 16.8661 15.8661C17.1005 15.6317 17.4185 15.5 17.75 15.5C18.0815 15.5 18.3995 15.6317 18.6339 15.8661C18.8683 16.1005 19 16.4185 19 16.75V18.25C19 18.94 18.44 19.5 17.75 19.5H2.25C1.56 19.5 1 18.94 1 18.25V16.75C1 16.06 1.56 15.5 2.25 15.5Z" fill="currentColor"/>
</g>
</svg>
